<?xml version="1.0" encoding="iso-8859-1"?>
<!-- Generator: Adobe Illustrator 18.0.0, SVG Export Plug-In . SVG Version: 6.00 Build 0)  -->
<!DOCTYPE svg PUBLIC "-//W3C//DTD SVG 1.1//EN" "http://www.w3.org/Graphics/SVG/1.1/DTD/svg11.dtd">
<svg version="1.1" id="Capa_1" xmlns="http://www.w3.org/2000/svg" xmlns:xlink="http://www.w3.org/1999/xlink" x="0px" y="0px"
	 viewBox="0 0 60 60" style="enable-background:new 0 0 60 60;" xml:space="preserve">
<path d="M57,13.993c0-0.016-0.006-0.03-0.007-0.046c-0.004-0.074-0.013-0.146-0.032-0.216c-0.009-0.03-0.023-0.057-0.035-0.086
	c-0.021-0.054-0.041-0.106-0.071-0.155c-0.018-0.03-0.041-0.056-0.061-0.083c-0.032-0.043-0.065-0.085-0.103-0.122
	c-0.026-0.025-0.056-0.047-0.085-0.069c-0.027-0.021-0.05-0.046-0.079-0.065c-0.017-0.01-0.036-0.015-0.053-0.024
	c-0.014-0.008-0.025-0.019-0.039-0.026l-27-13c-0.284-0.137-0.615-0.132-0.895,0.014l-25,13c-0.011,0.006-0.018,0.015-0.029,0.021
	c-0.011,0.006-0.024,0.009-0.036,0.016c-0.034,0.021-0.06,0.049-0.091,0.074c-0.029,0.023-0.06,0.044-0.087,0.07
	c-0.038,0.038-0.068,0.08-0.099,0.123c-0.02,0.028-0.044,0.053-0.061,0.083c-0.031,0.053-0.052,0.11-0.072,0.168
	c-0.009,0.025-0.022,0.047-0.029,0.073C3.013,13.824,3,13.911,3,14v32c0,0.379,0.214,0.725,0.553,0.895l26,13
	c0.015,0.007,0.031,0.004,0.046,0.011C29.728,59.962,29.862,60,30,60s0.273-0.038,0.401-0.095c0.015-0.007,0.032-0.004,0.046-0.011
	l26-13C56.786,46.725,57,46.379,57,46V14c0-0.001,0-0.002,0-0.004C57,13.995,57,13.994,57,13.993z M29,57.382l-24-12V15.618l24,12
	V57.382z M30,25.882L6.201,13.983L29.017,2.118L53.73,14.017L30,25.882z M32,53c-0.552,0-1-0.448-1-1c0-0.552,0.448-1,1-1
	s1,0.448,1,1C33,52.552,32.552,53,32,53z M32,47c-0.552,0-1-0.448-1-1c0-0.552,0.448-1,1-1s1,0.448,1,1C33,46.552,32.552,47,32,47z
	 M32,41c-0.552,0-1-0.448-1-1c0-0.552,0.448-1,1-1s1,0.448,1,1C33,40.552,32.552,41,32,41z M32,35c-0.552,0-1-0.448-1-1
	c0-0.552,0.448-1,1-1s1,0.448,1,1C33,34.552,32.552,35,32,35z M32,29c-0.552,0-1-0.448-1-1c0-0.552,0.448-1,1-1s1,0.448,1,1
	C33,28.552,32.552,29,32,29z M35,56c-0.552,0-1-0.448-1-1c0-0.552,0.448-1,1-1s1,0.448,1,1C36,55.552,35.552,56,35,56z M35,50
	c-0.552,0-1-0.448-1-1c0-0.552,0.448-1,1-1s1,0.448,1,1C36,49.552,35.552,50,35,50z M35,44c-0.552,0-1-0.448-1-1
	c0-0.552,0.448-1,1-1s1,0.448,1,1C36,43.552,35.552,44,35,44z M35,38c-0.552,0-1-0.448-1-1c0-0.552,0.448-1,1-1s1,0.448,1,1
	C36,37.552,35.552,38,35,38z M35,32c-0.552,0-1-0.448-1-1c0-0.552,0.448-1,1-1s1,0.448,1,1C36,31.552,35.552,32,35,32z M35,26
	c-0.552,0-1-0.448-1-1c0-0.552,0.448-1,1-1s1,0.448,1,1C36,25.552,35.552,26,35,26z M38,53c-0.552,0-1-0.448-1-1
	c0-0.552,0.448-1,1-1s1,0.448,1,1C39,52.552,38.552,53,38,53z M38,47c-0.552,0-1-0.448-1-1c0-0.552,0.448-1,1-1s1,0.448,1,1
	C39,46.552,38.552,47,38,47z M38,41c-0.552,0-1-0.448-1-1c0-0.552,0.448-1,1-1s1,0.448,1,1C39,40.552,38.552,41,38,41z M38,35
	c-0.552,0-1-0.448-1-1c0-0.552,0.448-1,1-1s1,0.448,1,1C39,34.552,38.552,35,38,35z M38,29c-0.552,0-1-0.448-1-1
	c0-0.552,0.448-1,1-1s1,0.448,1,1C39,28.552,38.552,29,38,29z M41,50c-0.552,0-1-0.448-1-1c0-0.552,0.448-1,1-1s1,0.448,1,1
	C42,49.552,41.552,50,41,50z M41,44c-0.552,0-1-0.448-1-1c0-0.552,0.448-1,1-1s1,0.448,1,1C42,43.552,41.552,44,41,44z M41,38
	c-0.552,0-1-0.448-1-1c0-0.552,0.448-1,1-1s1,0.448,1,1C42,37.552,41.552,38,41,38z M41,32c-0.552,0-1-0.448-1-1
	c0-0.552,0.448-1,1-1s1,0.448,1,1C42,31.552,41.552,32,41,32z M41,26c-0.552,0-1-0.448-1-1c0-0.552,0.448-1,1-1s1,0.448,1,1
	C42,25.552,41.552,26,41,26z M44,53c-0.552,0-1-0.448-1-1c0-0.552,0.448-1,1-1s1,0.448,1,1C45,52.552,44.552,53,44,53z M44,47
	c-0.552,0-1-0.448-1-1c0-0.552,0.448-1,1-1s1,0.448,1,1C45,46.552,44.552,47,44,47z M44,41c-0.552,0-1-0.448-1-1
	c0-0.552,0.448-1,1-1s1,0.448,1,1C45,40.552,44.552,41,44,41z M44,35c-0.552,0-1-0.448-1-1c0-0.552,0.448-1,1-1s1,0.448,1,1
	C45,34.552,44.552,35,44,35z M44,29c-0.552,0-1-0.448-1-1c0-0.552,0.448-1,1-1s1,0.448,1,1C45,28.552,44.552,29,44,29z M44,23
	c-0.552,0-1-0.448-1-1c0-0.552,0.448-1,1-1s1,0.448,1,1C45,22.552,44.552,23,44,23z M47,50c-0.552,0-1-0.448-1-1
	c0-0.552,0.448-1,1-1s1,0.448,1,1C48,49.552,47.552,50,47,50z M47,44c-0.552,0-1-0.448-1-1c0-0.552,0.448-1,1-1s1,0.448,1,1
	C48,43.552,47.552,44,47,44z M47,38c-0.552,0-1-0.448-1-1c0-0.552,0.448-1,1-1s1,0.448,1,1C48,37.552,47.552,38,47,38z M47,32
	c-0.552,0-1-0.448-1-1c0-0.552,0.448-1,1-1s1,0.448,1,1C48,31.552,47.552,32,47,32z M47,26c-0.552,0-1-0.448-1-1
	c0-0.552,0.448-1,1-1s1,0.448,1,1C48,25.552,47.552,26,47,26z M47,20c-0.552,0-1-0.448-1-1c0-0.552,0.448-1,1-1s1,0.448,1,1
	C48,19.552,47.552,20,47,20z M50,47c-0.552,0-1-0.448-1-1c0-0.552,0.448-1,1-1s1,0.448,1,1C51,46.552,50.552,47,50,47z M50,41
	c-0.552,0-1-0.448-1-1c0-0.552,0.448-1,1-1s1,0.448,1,1C51,40.552,50.552,41,50,41z M50,35c-0.552,0-1-0.448-1-1
	c0-0.552,0.448-1,1-1s1,0.448,1,1C51,34.552,50.552,35,50,35z M50,29c-0.552,0-1-0.448-1-1c0-0.552,0.448-1,1-1s1,0.448,1,1
	C51,28.552,50.552,29,50,29z M50,23c-0.552,0-1-0.448-1-1c0-0.552,0.448-1,1-1s1,0.448,1,1C51,22.552,50.552,23,50,23z M53,44
	c-0.552,0-1-0.448-1-1c0-0.552,0.448-1,1-1s1,0.448,1,1C54,43.552,53.552,44,53,44z M53,38c-0.552,0-1-0.448-1-1
	c0-0.552,0.448-1,1-1s1,0.448,1,1C54,37.552,53.552,38,53,38z M53,32c-0.552,0-1-0.448-1-1c0-0.552,0.448-1,1-1s1,0.448,1,1
	C54,31.552,53.552,32,53,32z M53,26c-0.552,0-1-0.448-1-1c0-0.552,0.448-1,1-1s1,0.448,1,1C54,25.552,53.552,26,53,26z M53,20
	c-0.552,0-1-0.448-1-1c0-0.552,0.448-1,1-1s1,0.448,1,1C54,19.552,53.552,20,53,20z"/>
<g>
</g>
<g>
</g>
<g>
</g>
<g>
</g>
<g>
</g>
<g>
</g>
<g>
</g>
<g>
</g>
<g>
</g>
<g>
</g>
<g>
</g>
<g>
</g>
<g>
</g>
<g>
</g>
<g>
</g>
</svg>
