<?xml version="1.0" encoding="iso-8859-1"?>
<!-- Generator: Adobe Illustrator 19.0.0, SVG Export Plug-In . SVG Version: 6.00 Build 0)  -->
<svg version="1.1" id="Layer_1" xmlns="http://www.w3.org/2000/svg" xmlns:xlink="http://www.w3.org/1999/xlink" x="0px" y="0px"
	 viewBox="0 0 511.993 511.993" style="enable-background:new 0 0 511.993 511.993;" xml:space="preserve">
<g>
	<g>
		<path d="M435.197,153.593h-115.2v25.6h102.4v307.2h-332.8v-307.2h102.4v-25.6h-115.2c-7.066,0-12.8,5.734-12.8,12.8v332.8
			c0,7.066,5.734,12.8,12.8,12.8h358.4c7.066,0,12.8-5.734,12.8-12.8v-332.8C447.997,159.328,442.262,153.593,435.197,153.593z"/>
	</g>
</g>
<g>
	<g>
		<path d="M341.74,78.782l-76.8-75.136c-5.043-4.941-13.158-4.847-18.099,0.205l-76.595,74.923
			c-5.052,4.949-5.146,13.047-0.205,18.108c4.941,5.035,13.056,5.129,18.099,0.188l55.057-53.854v275.098
			c0,7.074,5.734,12.8,12.8,12.8c7.066,0,12.8-5.717,12.8-12.8V43.215l55.049,53.854c5.043,4.949,13.158,4.855,18.099-0.188
			C346.885,91.821,346.8,83.722,341.74,78.782z"/>
	</g>
</g>
<g>
</g>
<g>
</g>
<g>
</g>
<g>
</g>
<g>
</g>
<g>
</g>
<g>
</g>
<g>
</g>
<g>
</g>
<g>
</g>
<g>
</g>
<g>
</g>
<g>
</g>
<g>
</g>
<g>
</g>
</svg>
