<?xml version="1.0" encoding="iso-8859-1"?>
<!-- Generator: Adobe Illustrator 16.0.0, SVG Export Plug-In . SVG Version: 6.00 Build 0)  -->
<!DOCTYPE svg PUBLIC "-//W3C//DTD SVG 1.1//EN" "http://www.w3.org/Graphics/SVG/1.1/DTD/svg11.dtd">
<svg version="1.1" id="Capa_1" xmlns="http://www.w3.org/2000/svg" xmlns:xlink="http://www.w3.org/1999/xlink" x="0px" y="0px"
	 width="510px" height="510px" viewBox="0 0 510 510" style="enable-background:new 0 0 510 510;" xml:space="preserve">
<g>
	<g id="link">
		<path d="M153,280.5h204v-51H153V280.5z M48.45,255c0-58.65,45.9-104.55,104.55-104.55h76.5V102H153C68.85,102,0,170.85,0,255
			c0,84.15,68.85,153,153,153h76.5v-48.45H153C94.35,359.55,48.45,313.65,48.45,255z M357,102h-76.5v48.45H357
			c58.65,0,104.55,45.9,104.55,104.55c0,58.65-45.899,104.55-104.55,104.55h-76.5V408H357c84.15,0,153-68.85,153-153
			C510,170.85,441.15,102,357,102z"/>
	</g>
</g>
<g>
</g>
<g>
</g>
<g>
</g>
<g>
</g>
<g>
</g>
<g>
</g>
<g>
</g>
<g>
</g>
<g>
</g>
<g>
</g>
<g>
</g>
<g>
</g>
<g>
</g>
<g>
</g>
<g>
</g>
</svg>
