<?xml version="1.0" ?><svg height="20" version="1.1" viewBox="0 0 20 20" width="20" xmlns="http://www.w3.org/2000/svg"><g id="layer1"><path d="M 0 0 L 0 20 L 20 20 L 0 0 z M 1 2.4160156 L 17.583984 19 L 15 19 L 15 18 L 14 18 L 14 19 L 12.998047 19 L 12.998047 18 L 12 18 L 12 19 L 11 19 L 11 18 L 10 18 L 10 19 L 9 19 L 9 18 L 8 18 L 8 19 L 7 19 L 7 18 L 6 18 L 6 19 L 5 19 L 5 18 L 4 18 L 4 19 L 3 19 L 3 18 L 2 18 L 2 19 L 1 19 L 1 2.4160156 z M 4 9.6582031 L 4 16 L 10.34375 16 L 4 9.6582031 z M 5 12.072266 L 7.9277344 15 L 5 15 L 5 12.072266 z " style="fill:#222222; fill-opacity:1; stroke:none; stroke-width:0px;"/></g></svg>