<?xml version="1.0" encoding="iso-8859-1"?>
<!-- Generator: Adobe Illustrator 19.0.0, SVG Export Plug-In . SVG Version: 6.00 Build 0)  -->
<svg version="1.1" id="Layer_1" xmlns="http://www.w3.org/2000/svg" xmlns:xlink="http://www.w3.org/1999/xlink" x="0px" y="0px"
	 viewBox="0 0 460.893 460.893" style="enable-background:new 0 0 460.893 460.893;" xml:space="preserve">
<g>
	<g>
		<path d="M236.823,68.312V8.579c0.032-3.455-2.023-6.589-5.205-7.936c-3.235-1.332-6.956-0.554-9.387,1.963l-93.867,93.867
			c-3.309,3.328-3.309,8.704,0,12.032l93.867,93.867c1.614,1.628,3.816,2.537,6.108,2.524c4.713-0.027,8.511-3.87,8.484-8.583
			v-59.733c67.121,4.485,119.316,60.16,119.466,127.43c0.157,70.692-57.023,128.127-127.715,128.284
			c-70.692,0.157-128.127-57.023-128.284-127.715c0-4.713-3.82-8.533-8.533-8.533h-51.2c-4.713,0-8.533,3.82-8.533,8.533
			c0,108.395,87.872,196.267,196.267,196.267c108.395,2.356,198.177-83.605,200.533-192
			C431.179,160.45,345.218,70.669,236.823,68.312z"/>
	</g>
</g>
<g>
</g>
<g>
</g>
<g>
</g>
<g>
</g>
<g>
</g>
<g>
</g>
<g>
</g>
<g>
</g>
<g>
</g>
<g>
</g>
<g>
</g>
<g>
</g>
<g>
</g>
<g>
</g>
<g>
</g>
</svg>
