<?xml version="1.0" encoding="UTF-8" standalone="no"?>
<!-- Generator: Adobe Illustrator 19.0.0, SVG Export Plug-In . SVG Version: 6.00 Build 0)  -->

<svg
   xmlns:dc="http://purl.org/dc/elements/1.1/"
   xmlns:cc="http://creativecommons.org/ns#"
   xmlns:rdf="http://www.w3.org/1999/02/22-rdf-syntax-ns#"
   xmlns:svg="http://www.w3.org/2000/svg"
   xmlns="http://www.w3.org/2000/svg"
   xmlns:sodipodi="http://sodipodi.sourceforge.net/DTD/sodipodi-0.dtd"
   xmlns:inkscape="http://www.inkscape.org/namespaces/inkscape"
   version="1.1"
   id="Layer_1"
   x="0px"
   y="0px"
   viewBox="0 0 512 512"
   style="enable-background:new 0 0 512 512;"
   xml:space="preserve"
   inkscape:version="0.91 r13725"
   sodipodi:docname="view-right.svg"><metadata
     id="metadata5683"><rdf:RDF><cc:Work
         rdf:about=""><dc:format>image/svg+xml</dc:format><dc:type
           rdf:resource="http://purl.org/dc/dcmitype/StillImage" /><dc:title></dc:title></cc:Work></rdf:RDF></metadata><defs
     id="defs5681" /><sodipodi:namedview
     pagecolor="#ffffff"
     bordercolor="#666666"
     borderopacity="1"
     objecttolerance="10"
     gridtolerance="10"
     guidetolerance="10"
     inkscape:pageopacity="0"
     inkscape:pageshadow="2"
     inkscape:window-width="726"
     inkscape:window-height="807"
     id="namedview5679"
     showgrid="false"
     inkscape:zoom="0.4609375"
     inkscape:cx="256"
     inkscape:cy="256"
     inkscape:window-x="0"
     inkscape:window-y="0"
     inkscape:window-maximized="0"
     inkscape:current-layer="Layer_1" /><g
     id="g5643"><g
       id="g5645"><path
         d="M511.531,8.384c-0.128-0.576-0.128-1.195-0.363-1.749c-1.088-2.645-3.179-4.736-5.824-5.824    c-0.555-0.235-1.152-0.213-1.749-0.363C502.869,0.299,502.144,0,501.333,0H160c-0.619,0-1.173,0.256-1.771,0.363    c-0.768,0.128-1.557,0.149-2.283,0.448c-1.323,0.555-2.496,1.323-3.499,2.325L3.115,152.469c-0.085,0.085-0.107,0.213-0.213,0.299    c-0.853,0.917-1.6,1.963-2.091,3.136C0.277,157.248,0,158.635,0,160.043v341.269c0,1.408,0.277,2.816,0.832,4.117    c0.299,0.704,0.811,1.237,1.237,1.856c0.363,0.533,0.576,1.109,1.045,1.579c0.363,0.341,0.811,0.491,1.195,0.789    c0.725,0.555,1.429,1.152,2.283,1.493C7.893,511.723,9.28,512,10.667,512H352c1.387,0,2.773-0.277,4.075-0.832    c1.173-0.491,2.219-1.216,3.136-2.091c0.085-0.085,0.213-0.107,0.32-0.213l149.333-149.333c0.981-0.981,1.771-2.176,2.304-3.477    c0.299-0.747,0.341-1.515,0.469-2.304c0.107-0.576,0.363-1.131,0.363-1.749V10.667C512,9.856,511.701,9.131,511.531,8.384z     M149.333,36.416v112.917H36.416L149.333,36.416z M21.333,170.667h128v176.917l-128,128V170.667z M341.333,490.667H36.416l128-128    h176.917V490.667z M341.333,341.333H170.667V170.667h170.667V341.333z M347.584,149.333H170.667v-128h304.917L347.584,149.333z     M362.667,475.584V362.667h112.917L362.667,475.584z M490.667,341.333h-128V164.416l128-128V341.333z"
         id="path5647" /></g></g><g
     id="g5649" /><g
     id="g5651" /><g
     id="g5653" /><g
     id="g5655" /><g
     id="g5657" /><g
     id="g5659" /><g
     id="g5661" /><g
     id="g5663" /><g
     id="g5665" /><g
     id="g5667" /><g
     id="g5669" /><g
     id="g5671" /><g
     id="g5673" /><g
     id="g5675" /><g
     id="g5677" /><path
     style="fill:#dd55ff;fill-opacity:1;stroke:#000000;stroke-width:0;stroke-linecap:butt;stroke-linejoin:miter;stroke-miterlimit:4;stroke-dasharray:none;stroke-dashoffset:0;stroke-opacity:1"
     d="m 362.73898,253.27435 0,-87.33583 64,-63.97242 64,-63.972418 0,151.308238 0,151.30825 -64,0 -64,0 0,-87.33582 z"
     id="path6247"
     inkscape:connector-curvature="0" /><path
     style="fill:#dd55ff;fill-opacity:1;stroke:#000000;stroke-width:0;stroke-linecap:butt;stroke-linejoin:miter;stroke-miterlimit:4;stroke-dasharray:none;stroke-dashoffset:0;stroke-opacity:1"
     d="m 362.73898,418.71186 0,-54.23728 54.76339,0 54.76339,0 -54.20474,54.23728 c -29.81261,29.83051 -54.45614,54.23729 -54.76339,54.23729 -0.30726,0 -0.55865,-24.40678 -0.55865,-54.23729 z"
     id="path6249"
     inkscape:connector-curvature="0" /></svg>