<?xml version="1.0" encoding="UTF-8" standalone="no"?>
<svg
   xmlns:dc="http://purl.org/dc/elements/1.1/"
   xmlns:cc="http://creativecommons.org/ns#"
   xmlns:rdf="http://www.w3.org/1999/02/22-rdf-syntax-ns#"
   xmlns:svg="http://www.w3.org/2000/svg"
   xmlns="http://www.w3.org/2000/svg"
   xmlns:sodipodi="http://sodipodi.sourceforge.net/DTD/sodipodi-0.dtd"
   xmlns:inkscape="http://www.inkscape.org/namespaces/inkscape"
   width="800px"
   height="800px"
   viewBox="0 0 64 64"
   fill="none"
   stroke="#000000"
   stroke-width="2.56"
   version="1.1"
   id="svg9"
   sodipodi:docname="visibility-show-all.svg"
   inkscape:version="1.0.2 (e86c870879, 2021-01-15)">
  <metadata
     id="metadata15">
    <rdf:RDF>
      <cc:Work
         rdf:about="">
        <dc:format>image/svg+xml</dc:format>
        <dc:type
           rdf:resource="http://purl.org/dc/dcmitype/StillImage" />
        <dc:title />
      </cc:Work>
    </rdf:RDF>
  </metadata>
  <defs
     id="defs13">
    <inkscape:path-effect
       effect="bspline"
       id="path-effect910"
       is_visible="true"
       lpeversion="1"
       weight="33.333333"
       steps="2"
       helper_size="0"
       apply_no_weight="true"
       apply_with_weight="true"
       only_selected="false" />
    <inkscape:path-effect
       effect="bspline"
       id="path-effect886"
       is_visible="true"
       lpeversion="1"
       weight="33.333333"
       steps="2"
       helper_size="0"
       apply_no_weight="true"
       apply_with_weight="true"
       only_selected="false" />
    <inkscape:path-effect
       effect="bspline"
       id="path-effect863"
       is_visible="true"
       lpeversion="1"
       weight="33.333333"
       steps="2"
       helper_size="0"
       apply_no_weight="true"
       apply_with_weight="true"
       only_selected="false" />
  </defs>
  <sodipodi:namedview
     pagecolor="#ffffff"
     bordercolor="#666666"
     borderopacity="1"
     objecttolerance="10"
     gridtolerance="10"
     guidetolerance="10"
     inkscape:pageopacity="0"
     inkscape:pageshadow="2"
     inkscape:window-width="1920"
     inkscape:window-height="1017"
     id="namedview11"
     showgrid="false"
     inkscape:zoom="0.75130095"
     inkscape:cx="65.289108"
     inkscape:cy="590.73353"
     inkscape:window-x="-8"
     inkscape:window-y="-8"
     inkscape:window-maximized="1"
     inkscape:current-layer="SVGRepo_iconCarrier"
     inkscape:document-rotation="0"
     inkscape:snap-grids="true"
     inkscape:snap-midpoints="false"
     inkscape:snap-global="true"
     inkscape:snap-others="true"
     inkscape:snap-object-midpoints="true"
     inkscape:snap-text-baseline="true">
    <inkscape:grid
       type="xygrid"
       id="grid962" />
  </sodipodi:namedview>
  <g
     id="SVGRepo_bgCarrier"
     stroke-width="0" />
  <g
     id="SVGRepo_tracerCarrier"
     stroke-linecap="round"
     stroke-linejoin="round" />
  <g
     id="SVGRepo_iconCarrier"
     transform="matrix(1.217865,0,0,1.217865,-6.9100559,-7.376383)">
    <path
       d="M 56,32 C 56,32 48,48 32,48 16,48 8,32 8,32 8,32 16,16 32,16 48,16 56,32 56,32 Z"
       id="path6" />
    <path
       style="fill:#000000;stroke:#000000;stroke-width:66.5512;stroke-dashoffset:5.53559"
       d="M 380.74192,617.89892 C 303.44911,611.23162 240.94732,585.79058 177.76068,535.27643 160.86322,521.76786 126.24701,487.7307 111.65424,470.27581 97.265268,453.06467 78.501571,427.36266 67.718798,410.0942 l -9.320579,-14.92678 6.703608,-11.09816 c 32.511174,-53.8239 83.404973,-109.3098 132.820623,-144.80493 90.14073,-64.74782 194.92996,-83.71565 297.28758,-53.81182 48.14762,14.06635 96.40068,41.11066 139.09206,77.95669 13.86847,11.96958 41.70063,39.99418 54.09029,54.4643 16.31864,19.05882 40.10002,52.12245 50.9567,70.84585 l 3.64788,6.29116 -6.6939,11.08211 c -19.50633,32.29372 -44.83652,64.24982 -74.69971,94.23978 -31.93791,32.07347 -58.89594,53.11978 -93.44506,72.95312 -38.11796,21.8821 -84.24958,37.32618 -127.52027,42.69163 -12.34196,1.53037 -50.31077,2.74861 -59.8961,1.92177 z"
       id="path849"
       transform="matrix(0.06568873,0,0,0.06568873,5.6739096,6.056815)" />
  </g>
</svg>
