<?xml version="1.0" encoding="UTF-8" standalone="no"?>
<svg
   xmlns:dc="http://purl.org/dc/elements/1.1/"
   xmlns:cc="http://creativecommons.org/ns#"
   xmlns:rdf="http://www.w3.org/1999/02/22-rdf-syntax-ns#"
   xmlns:svg="http://www.w3.org/2000/svg"
   xmlns="http://www.w3.org/2000/svg"
   xmlns:sodipodi="http://sodipodi.sourceforge.net/DTD/sodipodi-0.dtd"
   xmlns:inkscape="http://www.inkscape.org/namespaces/inkscape"
   version="1.1"
   id="Capa_1"
   x="0px"
   y="0px"
   width="95px"
   height="95px"
   viewBox="0 0 95 95"
   style="enable-background:new 0 0 95 95;"
   xml:space="preserve"
   inkscape:version="1.0.2 (e86c870879, 2021-01-15)"
   sodipodi:docname="xde-assembly.svg"><metadata
     id="metadata47"><rdf:RDF><cc:Work
         rdf:about=""><dc:format>image/svg+xml</dc:format><dc:type
           rdf:resource="http://purl.org/dc/dcmitype/StillImage" /><dc:title /></cc:Work></rdf:RDF></metadata><defs
     id="defs45" /><sodipodi:namedview
     pagecolor="#ffffff"
     bordercolor="#666666"
     borderopacity="1"
     objecttolerance="10"
     gridtolerance="10"
     guidetolerance="10"
     inkscape:pageopacity="0"
     inkscape:pageshadow="2"
     inkscape:window-width="1920"
     inkscape:window-height="1017"
     id="namedview43"
     showgrid="false"
     inkscape:zoom="8"
     inkscape:cx="23.21796"
     inkscape:cy="47.195373"
     inkscape:window-x="-8"
     inkscape:window-y="-8"
     inkscape:window-maximized="1"
     inkscape:current-layer="Capa_1"
     inkscape:document-rotation="0" /><path
     d="m 58,13 -21,0 c -1.104,0 -2,0.896 -2,2 l 0,21 c 0,1.104 0.896,2 2,2 l 21,0 c 1.104,0 2,-0.896 2,-2 l 0,-21 c 0,-1.104 -0.895,-2 -2,-2 z"
     id="path9"
     inkscape:connector-curvature="0"
     style="stroke-width:1;stroke-miterlimit:4;stroke-dasharray:none;fill:#7fc242;fill-opacity:1" /><g
     id="g13" /><g
     id="g15" /><g
     id="g17" /><g
     id="g19" /><g
     id="g21" /><g
     id="g23" /><g
     id="g25" /><g
     id="g27" /><g
     id="g29" /><g
     id="g31" /><g
     id="g33" /><g
     id="g35" /><g
     id="g37" /><g
     id="g39" /><g
     id="g41" /><path
     d="m 35.25,53 h -21 c -1.104,0 -2,0.896 -2,2 v 21 c 0,1.104 0.896,2 2,2 h 21 c 1.104,0 2,-0.896 2,-2 V 55 c 0,-1.104 -0.895,-2 -2,-2 z"
     id="path9-9"
     inkscape:connector-curvature="0"
     style="fill:#7fc242;fill-opacity:1;stroke-width:1;stroke-miterlimit:4;stroke-dasharray:none" /><path
     d="m 81.125,53.125 h -21 c -1.104,0 -2,0.896 -2,2 v 21 c 0,1.104 0.896,2 2,2 h 21 c 1.104,0 2,-0.896 2,-2 v -21 c 0,-1.104 -0.895,-2 -2,-2 z"
     id="path9-4"
     inkscape:connector-curvature="0"
     style="fill:#7fc242;fill-opacity:1;stroke-width:1;stroke-miterlimit:4;stroke-dasharray:none" /></svg>
