DBRep_DrawableShape

CASCADE Topology V1, (c) Matra-Datavision
Locations 1
1
              1               0               0               0 
              0               1               0               0 
              0               0               1               0 
Curve2ds 36
1 0 0 1 0 
1 0 0 1 0 
1 0 0 -1 0 
1 0 0 -1 0 
1 10 0 0 -1 
1 0 0 0 1 
1 -10 0 -0 -1 
1 0 -10 1 0 
1 0 0 1 0 
1 0 -10 -1 0 
1 0 0 0 -1 
1 0 0 0 1 
1 0 0 -0 -1 
1 0 0 -0 1 
1 0 0 1 0 
1 0 10 1 0 
1 0 10 -1 0 
1 10 0 0 -1 
1 10 0 0 1 
1 0 -10 1 0 
1 0 10 1 0 
1 0 0 0 -1 
1 10 0 0 1 
1 -10 0 -0 1 
1 0 0 0 1 
1 0 0 1 0 
1 0 0 -0 1 
1 0 0 -1 0 
1 10 0 0 1 
1 0 0 1 0 
1 -10 0 -0 1 
1 0 0 0 1 
1 0 10 1 0 
1 0 10 -1 0 
1 10 0 0 1 
1 0 10 1 0 
Curves 12
1 0 0 0 0 0 1 
1 0 0 10 -0 1 0 
1 0 10 0 0 0 1 
1 0 0 0 -0 1 0 
1 10 0 0 0 0 1 
1 10 0 10 -0 1 0 
1 10 10 0 0 0 1 
1 10 0 0 -0 1 0 
1 0 0 0 1 0 -0 
1 0 0 10 1 0 -0 
1 0 10 0 1 0 -0 
1 0 10 10 1 0 -0 
Polygon3D 0
PolygonOnTriangulations 24
2 1 2 
p 0.05 1 0 10 
2 1 4 
p 0.05 1 0 10 
2 2 3 
p 0.05 1 0 10 
2 1 2 
p 0.05 1 0 10 
2 4 3 
p 0.05 1 0 10 
2 1 4 
p 0.05 1 0 10 
2 1 4 
p 0.05 1 0 10 
2 1 2 
p 0.05 1 0 10 
2 1 2 
p 0.05 1 0 10 
2 2 3 
p 0.05 1 0 10 
2 2 3 
p 0.05 1 0 10 
2 4 3 
p 0.05 1 0 10 
2 4 3 
p 0.05 1 0 10 
2 2 3 
p 0.05 1 0 10 
2 1 4 
p 0.05 1 0 10 
2 4 3 
p 0.05 1 0 10 
2 1 2 
p 0.05 1 0 10 
2 1 4 
p 0.05 1 0 10 
2 4 3 
p 0.05 1 0 10 
2 1 4 
p 0.05 1 0 10 
2 1 2 
p 0.05 1 0 10 
2 2 3 
p 0.05 1 0 10 
2 4 3 
p 0.05 1 0 10 
2 2 3 
p 0.05 1 0 10 
Surfaces 9
1 0 0 0 1 0 -0 0 0 1 0 -1 0 
1 0 0 0 -0 1 0 0 0 1 1 0 -0 
1 0 0 0 1 0 -0 -0 -0 -1 0 -1 0 
1 0 0 0 -0 1 0 -0 -0 -1 1 0 -0 
1 0 0 10 0 0 1 1 0 -0 -0 1 0 
1 0 10 0 -0 1 0 0 0 1 1 0 -0 
1 0 0 0 0 0 1 1 0 -0 -0 1 0 
1 0 0 0 0 0 1 -1 -0 0 -0 1 0 
1 10 0 0 1 0 -0 0 0 1 0 -1 0 
Triangulations 6
4 2 1 0
0 0 0 0 0 10 0 10 10 0 10 0 0 0 10 0 10 -10 0 -10 2 4 3 2 1 4 
4 2 1 0
0 0 0 10 0 0 10 0 10 0 0 10 0 0 0 10 10 10 10 0 3 2 1 3 1 4 
4 2 1 0
0 0 10 0 10 10 10 10 10 10 0 10 0 0 0 10 10 10 10 0 3 2 1 3 1 4 
4 2 1 0
0 10 0 10 10 0 10 10 10 0 10 10 0 0 0 10 10 10 10 0 3 2 1 3 1 4 
4 2 1 0
0 0 0 0 10 0 10 10 0 10 0 0 0 0 0 10 10 10 10 0 3 2 1 3 1 4 
4 2 1 0
10 0 0 10 0 10 10 10 10 10 10 0 0 0 10 0 10 -10 0 -10 2 4 3 2 1 4 

TShapes 35
Ve
1e-07
0 0 10
0 0

0101101
*
Ve
1e-07
0 0 0
0 0

0101101
*
Ed
 1e-07 1 1 0
1  1 0 0 10
2  1 1 0 0 10
2  2 2 0 0 10
6  1 1 0
6  2 2 0
2  3 3 0 0 10
2  4 4 0 0 10
0

0101000
-35 0 +34 0 *
Ve
1e-07
0 10 10
0 0

0101101
*
Ed
 1e-07 1 1 0
1  2 0 0 10
2  5 1 0 0 10
2  6 5 0 0 10
6  3 1 0
6  4 3 0
2  7 3 0 0 10
0

0101000
-32 0 +35 0 *
Ve
1e-07
0 10 0
0 0

0101101
*
Ed
 1e-07 1 1 0
1  3 0 0 10
2  8 1 0 0 10
2  9 6 0 0 10
6  5 1 0
6  6 4 0
2  10 3 0 0 10
0

0101000
-32 0 +30 0 *
Ed
 1e-07 1 1 0
1  4 0 0 10
2  11 1 0 0 10
2  12 7 0 0 10
6  7 1 0
6  8 5 0
2  13 3 0 0 10
2  14 8 0 0 10
0

0101000
-30 0 +34 0 *
Wi

0101100
-33 0 -31 0 +29 0 +28 0 *
Fa
0  1e-07 1 0
2  1
0101000
+27 0 *
Ve
1e-07
10 0 10
0 0

0101101
*
Ve
1e-07
10 0 0
0 0

0101101
*
Ed
 1e-07 1 1 0
1  5 0 0 10
2  15 9 0 0 10
2  16 2 0 0 10
6  9 6 0
6  10 2 0
2  17 4 0 0 10
0

0101000
-25 0 +24 0 *
Ve
1e-07
10 10 10
0 0

0101101
*
Ed
 1e-07 1 1 0
1  6 0 0 10
2  18 9 0 0 10
2  19 5 0 0 10
6  11 6 0
6  12 3 0
0

0101000
-22 0 +25 0 *
Ve
1e-07
10 10 0
0 0

0101101
*
Ed
 1e-07 1 1 0
1  7 0 0 10
2  20 9 0 0 10
2  21 6 0 0 10
6  13 6 0
6  14 4 0
0

0101000
-22 0 +20 0 *
Ed
 1e-07 1 1 0
1  8 0 0 10
2  22 9 0 0 10
2  23 7 0 0 10
6  15 6 0
6  16 5 0
2  24 8 0 0 10
0

0101000
-20 0 +24 0 *
Wi

0101100
-23 0 -21 0 +19 0 +18 0 *
Fa
0  1e-07 9 0
2  6
0101000
+17 0 *
Ed
 1e-07 1 1 0
1  9 0 0 10
2  25 2 0 0 10
2  26 7 0 0 10
6  17 2 0
6  18 5 0
2  27 4 0 0 10
2  28 8 0 0 10
0

0101000
-24 0 +34 0 *
Ed
 1e-07 1 1 0
1  10 0 0 10
2  29 2 0 0 10
2  30 5 0 0 10
6  19 2 0
6  20 3 0
2  31 4 0 0 10
0

0101000
-25 0 +35 0 *
Wi

0101100
-15 0 -23 0 +14 0 +33 0 *
Fa
0  1e-07 2 0
2  2
0101000
+13 0 *
Ed
 1e-07 1 1 0
1  11 0 0 10
2  32 6 0 0 10
2  33 7 0 0 10
6  21 4 0
6  22 5 0
2  34 8 0 0 10
0

0101000
-20 0 +30 0 *
Ed
 1e-07 1 1 0
1  12 0 0 10
2  35 6 0 0 10
2  36 5 0 0 10
6  23 4 0
6  24 3 0
0

0101000
-22 0 +32 0 *
Wi

0101100
-11 0 -19 0 +10 0 +29 0 *
Fa
0  1e-07 6 0
2  4
0101000
+9 0 *
Wi

0101100
-28 0 -11 0 +18 0 +15 0 *
Fa
0  1e-07 7 0
2  5
0101000
+7 0 *
Wi

0101100
-31 0 -10 0 +21 0 +14 0 *
Fa
0  1e-07 5 0
2  3
0101000
+5 0 *
Sh

0101100
-26 0 +16 0 -12 0 +8 0 -6 0 +4 0 *
So

0100000
+3 0 *
Co

1100000
+2 1 *

+1 0 