<svg id="Capa_1" enable-background="new 0 0 512 512" height="512" viewBox="0 0 512 512" width="512" xmlns="http://www.w3.org/2000/svg"><g><g><path d="m107.686 0-17.694 37.694-46.041 26.04v373.064h168.098l20-203.232-20-233.566z" fill="#fff5f5"/><path d="m212.049 0h162.791v436.798h-162.791z" fill="#dce6eb"/></g><path d="m107.686 0v63.734h-63.735z" fill="#dce6eb"/><g><path d="m212.049 162.369h-106.31v-30h106.31l10 15z" fill="#dce6eb"/></g><g><path d="m212.049 226.104h-106.31v-30h106.31l10 15z" fill="#dce6eb"/></g><g><path d="m212.049 289.838h-106.31v-30h106.31l10 15z" fill="#dce6eb"/></g><g><path d="m212.049 132.369h101.004v30h-101.004z" fill="#c8d2dc"/></g><g><path d="m212.049 196.104h101.004v30h-101.004z" fill="#c8d2dc"/></g><g><path d="m212.049 259.838h101.004v30h-101.004z" fill="#c8d2dc"/></g><g><circle cx="371.208" cy="415.159" fill="#3d9ae2" r="96.841"/><path d="m413.726 400.159h-27.518v-27.518h-30v27.518h-27.519v30h27.519v27.519h30v-27.519h27.518z" fill="#dce6eb"/></g></g></svg>