<?xml version="1.0" encoding="UTF-8" standalone="no"?>
<!-- Generator: Adobe Illustrator 12.0.0, SVG Export Plug-In . SVG Version: 6.00 Build 51448)  -->

<svg
   xmlns:ns="http://ns.adobe.com/SaveForWeb/1.0/"
   xmlns:dc="http://purl.org/dc/elements/1.1/"
   xmlns:cc="http://creativecommons.org/ns#"
   xmlns:rdf="http://www.w3.org/1999/02/22-rdf-syntax-ns#"
   xmlns:svg="http://www.w3.org/2000/svg"
   xmlns="http://www.w3.org/2000/svg"
   xmlns:xlink="http://www.w3.org/1999/xlink"
   xmlns:sodipodi="http://sodipodi.sourceforge.net/DTD/sodipodi-0.dtd"
   xmlns:inkscape="http://www.inkscape.org/namespaces/inkscape"
   version="1.1"
   id="Layer_1"
   width="128"
   height="128"
   viewBox="0 0 128 128"
   overflow="visible"
   enable-background="new 0 0 128 128"
   xml:space="preserve"
   sodipodi:version="0.32"
   inkscape:version="0.91 r13725"
   sodipodi:docname="export.svg"
   inkscape:output_extension="org.inkscape.output.svgz.inkscape"
   inkscape:export-filename="/home/pinheiro/pics/oxygen/scalable/actions/small/22x22/archive-extract.png"
   inkscape:export-xdpi="123.75"
   inkscape:export-ydpi="123.75"><defs
     id="defs105"><inkscape:perspective
       sodipodi:type="inkscape:persp3d"
       inkscape:vp_x="0 : 64 : 1"
       inkscape:vp_y="0 : 1000 : 0"
       inkscape:vp_z="128 : 64 : 1"
       inkscape:persp3d-origin="64 : 42.666667 : 1"
       id="perspective132" /><linearGradient
       y2="95.293"
       x2="87.293"
       y1="103"
       x1="95"
       gradientUnits="userSpaceOnUse"
       id="linearGradient4175"><stop
         id="stop4177"
         style="stop-color:#000000;stop-opacity:1"
         offset="0" /><stop
         id="stop4179"
         style="stop-color:#393B38"
         offset="1" /></linearGradient><linearGradient
       id="linearGradient3225"><stop
         style="stop-color:#ffffff;stop-opacity:1;"
         offset="0"
         id="stop3227" /><stop
         style="stop-color:#aeaeae;stop-opacity:1;"
         offset="1"
         id="stop3229" /></linearGradient><linearGradient
       inkscape:collect="always"
       xlink:href="#XMLID_9_"
       id="linearGradient2291"
       gradientUnits="userSpaceOnUse"
       x1="88.591797"
       y1="96.592697"
       x2="71.262016"
       y2="79.262917" /><linearGradient
       inkscape:collect="always"
       xlink:href="#linearGradient4175"
       id="linearGradient2295"
       gradientUnits="userSpaceOnUse"
       x1="85.219681"
       y1="93.219681"
       x2="61.336319"
       y2="69.336319" /><linearGradient
       inkscape:collect="always"
       xlink:href="#XMLID_12_"
       id="linearGradient2297"
       gradientUnits="userSpaceOnUse"
       x1="96"
       y1="104"
       x2="88.0002"
       y2="96.0002" /><radialGradient
       inkscape:collect="always"
       xlink:href="#XMLID_8_"
       id="radialGradient2272"
       gradientUnits="userSpaceOnUse"
       gradientTransform="matrix(0.94807,0,0,0.9510679,-2.543629,5.1603934)"
       cx="102"
       cy="112.3047"
       r="139.55859" /><radialGradient
       inkscape:collect="always"
       xlink:href="#XMLID_7_"
       id="radialGradient2275"
       gradientUnits="userSpaceOnUse"
       gradientTransform="matrix(0.9686802,0,0,0.9686802,-3.8626828,4.0332019)"
       cx="102"
       cy="112.3047"
       r="139.5585" /><filter
       inkscape:collect="always"
       id="filter3241"><feGaussianBlur
         inkscape:collect="always"
         stdDeviation="1.0394514"
         id="feGaussianBlur3243" /></filter><filter
       inkscape:collect="always"
       id="filter3772"><feGaussianBlur
         inkscape:collect="always"
         stdDeviation="0.50063244"
         id="feGaussianBlur3774" /></filter><filter
       inkscape:collect="always"
       id="filter4107"><feGaussianBlur
         inkscape:collect="always"
         stdDeviation="0.40750996"
         id="feGaussianBlur4109" /></filter><filter
       inkscape:collect="always"
       id="filter4171"><feGaussianBlur
         inkscape:collect="always"
         stdDeviation="0.4901192"
         id="feGaussianBlur4173" /></filter><filter
       inkscape:collect="always"
       id="filter4209"><feGaussianBlur
         inkscape:collect="always"
         stdDeviation="0.90565481"
         id="feGaussianBlur4211" /></filter><radialGradient
       gradientUnits="userSpaceOnUse"
       gradientTransform="matrix(1,0,0,0.9256542,0,1.3235438)"
       r="6.2063885"
       fy="17.802542"
       fx="73.082359"
       cy="17.802542"
       cx="73.082359"
       id="radialGradient5427"
       xlink:href="#linearGradient4062"
       inkscape:collect="always" /><radialGradient
       gradientUnits="userSpaceOnUse"
       gradientTransform="matrix(1,0,0,0.941389,0,1.0491489)"
       r="6.2063885"
       fy="17.900198"
       fx="73.082359"
       cy="17.900198"
       cx="73.082359"
       id="radialGradient5425"
       xlink:href="#linearGradient4062"
       inkscape:collect="always" /><linearGradient
       id="linearGradient3272"
       inkscape:collect="always"><stop
         id="stop3274"
         offset="0"
         style="stop-color:white;stop-opacity:1;" /><stop
         id="stop3276"
         offset="1"
         style="stop-color:white;stop-opacity:0;" /></linearGradient><linearGradient
       inkscape:collect="always"
       id="linearGradient3030"><stop
         style="stop-color:#000000;stop-opacity:0.77902622"
         offset="0"
         id="stop3032" /><stop
         style="stop-color:#000000;stop-opacity:0;"
         offset="1"
         id="stop3034" /></linearGradient><linearGradient
       inkscape:collect="always"
       id="linearGradient3260"><stop
         style="stop-color:#ffffff;stop-opacity:1;"
         offset="0"
         id="stop3262" /><stop
         style="stop-color:#ffffff;stop-opacity:0;"
         offset="1"
         id="stop3264" /></linearGradient><radialGradient
       id="XMLID_4_"
       cx="48"
       cy="-0.2148"
       r="55.147999"
       gradientTransform="matrix(0.9792,0,0,0.9725,133.0002,20.8762)"
       gradientUnits="userSpaceOnUse"><stop
         offset="0"
         style="stop-color:#72D13D"
         id="stop3082" /><stop
         offset="0.3553"
         style="stop-color:#35AC1C"
         id="stop3084" /><stop
         offset="0.6194"
         style="stop-color:#0F9508"
         id="stop3086" /><stop
         offset="0.7574"
         style="stop-color:#008C00"
         id="stop3088" /><stop
         offset="1"
         style="stop-color:#007A00"
         id="stop3090" /></radialGradient><linearGradient
       id="linearGradient4062"><stop
         id="stop3680"
         offset="0"
         style="stop-color:#baff63;stop-opacity:1;" /><stop
         id="stop3682"
         offset="1"
         style="stop-color:#ffffff;stop-opacity:0;" /></linearGradient><linearGradient
       inkscape:collect="always"
       xlink:href="#XMLID_4_"
       id="linearGradient4666"
       gradientUnits="userSpaceOnUse"
       gradientTransform="translate(292,239.1304)"
       x1="-13.757333"
       y1="76.708466"
       x2="-62.424866"
       y2="104.80668" /><linearGradient
       inkscape:collect="always"
       xlink:href="#linearGradient3260"
       id="linearGradient4668"
       gradientUnits="userSpaceOnUse"
       spreadMethod="reflect"
       x1="73.742638"
       y1="15.336544"
       x2="80"
       y2="19.281664" /><linearGradient
       inkscape:collect="always"
       xlink:href="#linearGradient3260"
       id="linearGradient4670"
       gradientUnits="userSpaceOnUse"
       spreadMethod="reflect"
       x1="73.742638"
       y1="15.336544"
       x2="80"
       y2="19.281664" /><linearGradient
       inkscape:collect="always"
       xlink:href="#linearGradient3260"
       id="linearGradient4676"
       gradientUnits="userSpaceOnUse"
       spreadMethod="reflect"
       x1="73.742638"
       y1="15.336544"
       x2="80"
       y2="19.281664" /><radialGradient
       inkscape:collect="always"
       xlink:href="#linearGradient3030"
       id="radialGradient4678"
       gradientUnits="userSpaceOnUse"
       gradientTransform="translate(292,239.1304)"
       cx="-44"
       cy="84"
       fx="-60"
       fy="100"
       r="24" /><linearGradient
       inkscape:collect="always"
       xlink:href="#linearGradient3260"
       id="linearGradient4680"
       gradientUnits="userSpaceOnUse"
       spreadMethod="reflect"
       x1="73.742638"
       y1="15.336544"
       x2="80"
       y2="19.281664" /><radialGradient
       inkscape:collect="always"
       xlink:href="#XMLID_4_"
       id="radialGradient4682"
       gradientUnits="userSpaceOnUse"
       gradientTransform="translate(292,239.1304)"
       cx="-44"
       cy="84"
       fx="-40"
       fy="96"
       r="20" /><linearGradient
       inkscape:collect="always"
       xlink:href="#linearGradient3272"
       id="linearGradient4684"
       gradientUnits="userSpaceOnUse"
       gradientTransform="translate(229.3125,239.1304)"
       x1="11.68106"
       y1="60.539303"
       x2="11.68106"
       y2="108.0104" /><linearGradient
       inkscape:collect="always"
       xlink:href="#linearGradient3260"
       id="linearGradient4686"
       gradientUnits="userSpaceOnUse"
       gradientTransform="translate(229.30236,239.1304)"
       x1="6.6976352"
       y1="52"
       x2="11.68106"
       y2="96.001434" /><linearGradient
       inkscape:collect="always"
       xlink:href="#linearGradient3260"
       id="linearGradient4688"
       gradientUnits="userSpaceOnUse"
       gradientTransform="translate(229.30236,239.1304)"
       x1="26.697636"
       y1="96"
       x2="14.697635"
       y2="72" /><linearGradient
       inkscape:collect="always"
       xlink:href="#linearGradient3225"
       id="linearGradient4690"
       gradientUnits="userSpaceOnUse"
       gradientTransform="translate(147.99999,239.1304)"
       x1="79.75"
       y1="84"
       x2="120.25"
       y2="84" /><linearGradient
       y2="34.472866"
       x2="22.413761"
       y1="28.5"
       x1="22.413761"
       gradientTransform="translate(10,0)"
       gradientUnits="userSpaceOnUse"
       id="linearGradient3190"
       xlink:href="#linearGradient2822"
       inkscape:collect="always" /><linearGradient
       id="linearGradient2822"><stop
         id="stop2824"
         offset="0"
         style="stop-color:#ffffff;stop-opacity:1;" /><stop
         id="stop2826"
         offset="1"
         style="stop-color:#ffffff;stop-opacity:0;" /></linearGradient><linearGradient
       y2="56.231236"
       x2="5.1264462"
       y1="56.231236"
       x1="64.129814"
       gradientTransform="matrix(0,-1.0293895,1.0293895,0,11.93834,80.22496)"
       gradientUnits="userSpaceOnUse"
       id="linearGradient3831"
       xlink:href="#linearGradient3757"
       inkscape:collect="always" /><filter
       id="filter3827"
       inkscape:collect="always"><feGaussianBlur
         id="feGaussianBlur3829"
         stdDeviation="1.7999096"
         inkscape:collect="always" /></filter><filter
       id="filter3797"
       inkscape:collect="always"><feGaussianBlur
         id="feGaussianBlur3799"
         stdDeviation="0.89030997"
         inkscape:collect="always" /></filter><linearGradient
       y2="56.231236"
       x2="5.1264462"
       y1="56.231236"
       x1="64.129814"
       gradientTransform="matrix(0,-1.0293895,1.0293895,0,11.93834,80.22496)"
       gradientUnits="userSpaceOnUse"
       id="linearGradient3771"
       xlink:href="#linearGradient3757"
       inkscape:collect="always" /><linearGradient
       y2="56.231236"
       x2="5.1264462"
       y1="56.231236"
       x1="64.129814"
       gradientTransform="matrix(0,-1.0293895,1.0293895,0,11.93834,80.22496)"
       gradientUnits="userSpaceOnUse"
       id="linearGradient3755"
       xlink:href="#linearGradient3757"
       inkscape:collect="always" /><linearGradient
       y2="56.231236"
       x2="5.1264462"
       y1="56.231236"
       x1="64.129814"
       gradientTransform="matrix(0,-1.0293895,1.0293895,0,11.93834,80.22496)"
       gradientUnits="userSpaceOnUse"
       id="linearGradient3730"
       xlink:href="#linearGradient2880"
       inkscape:collect="always" /><linearGradient
       gradientTransform="matrix(1.0099851,0,0,1.0099851,-1.3444494,-2.0331093)"
       gradientUnits="userSpaceOnUse"
       y2="74.721313"
       x2="63.998402"
       y1="2.0128229"
       x1="63.998402"
       id="linearGradient3722"
       xlink:href="#linearGradient3716"
       inkscape:collect="always" /><radialGradient
       r="139.55859"
       cy="112.3047"
       cx="102"
       gradientTransform="matrix(0.9787234,0,0,0.9818182,1.3617045,1.1636364)"
       gradientUnits="userSpaceOnUse"
       id="radialGradient2875"
       xlink:href="#XMLID_8_"
       inkscape:collect="always" /><radialGradient
       r="139.5585"
       cy="112.3047"
       cx="102"
       gradientTransform="translate(2.4e-6,0)"
       gradientUnits="userSpaceOnUse"
       id="radialGradient2626"
       xlink:href="#XMLID_7_"
       inkscape:collect="always" /><linearGradient
       y2="96.0002"
       x2="88.0002"
       y1="104"
       x1="96"
       gradientUnits="userSpaceOnUse"
       id="linearGradient2624"
       xlink:href="#XMLID_12_"
       inkscape:collect="always" /><linearGradient
       y2="95.293"
       x2="87.293"
       y1="103"
       x1="95"
       gradientUnits="userSpaceOnUse"
       id="linearGradient2622"
       xlink:href="#XMLID_11_"
       inkscape:collect="always" /><linearGradient
       y2="94.5865"
       x2="86.5865"
       y1="103"
       x1="95"
       gradientUnits="userSpaceOnUse"
       id="linearGradient2293"
       xlink:href="#XMLID_10_"
       inkscape:collect="always" /><linearGradient
       y2="94.5366"
       x2="86.5356"
       y1="102.3447"
       x1="94.3438"
       gradientUnits="userSpaceOnUse"
       id="linearGradient2619"
       xlink:href="#XMLID_9_"
       inkscape:collect="always" /><linearGradient
       id="linearGradient2880"><stop
         style="stop-color:#000000;stop-opacity:1;"
         offset="0"
         id="stop2882" /><stop
         id="stop2884"
         offset="0"
         style="stop-color:#000000;stop-opacity:1;" /><stop
         id="stop2886"
         offset="0.56999999"
         style="stop-color:#000000;stop-opacity:0.58823532;" /><stop
         style="stop-color:#3b3b3b;stop-opacity:0.72000003;"
         offset="0.82800001"
         id="stop2888" /><stop
         style="stop-color:white;stop-opacity:0;"
         offset="1"
         id="stop2890" /></linearGradient><linearGradient
       id="linearGradient3716"><stop
         id="stop3718"
         offset="0"
         style="stop-color:#fefefe;stop-opacity:1" /><stop
         style="stop-color:#e9eaea;stop-opacity:1"
         offset="0.23920465"
         id="stop3732" /><stop
         id="stop3720"
         offset="1"
         style="stop-color:#fdfdfd;stop-opacity:1" /></linearGradient><linearGradient
       id="linearGradient3757"><stop
         id="stop3759"
         offset="0"
         style="stop-color:#000000;stop-opacity:1;" /><stop
         style="stop-color:#000000;stop-opacity:1;"
         offset="0"
         id="stop3761" /><stop
         style="stop-color:#000000;stop-opacity:0.58823532;"
         offset="0.56999999"
         id="stop3763" /><stop
         id="stop3765"
         offset="0.74199998"
         style="stop-color:#3b3b3b;stop-opacity:0.72000003;" /><stop
         id="stop3767"
         offset="1"
         style="stop-color:white;stop-opacity:0;" /></linearGradient><inkscape:perspective
       id="perspective2600"
       inkscape:persp3d-origin="64 : 42.666667 : 1"
       inkscape:vp_z="128 : 64 : 1"
       inkscape:vp_y="0 : 1000 : 0"
       inkscape:vp_x="0 : 64 : 1"
       sodipodi:type="inkscape:persp3d" /><radialGradient
       inkscape:collect="always"
       xlink:href="#XMLID_7_"
       id="radialGradient2675"
       gradientUnits="userSpaceOnUse"
       gradientTransform="matrix(0.9686802,0,0,0.9686802,2.0517132,-1.8527335)"
       cx="102"
       cy="112.3047"
       r="139.5585" /><linearGradient
       inkscape:collect="always"
       xlink:href="#XMLID_9_"
       id="linearGradient2677"
       gradientUnits="userSpaceOnUse"
       x1="88.591797"
       y1="96.592697"
       x2="71.262016"
       y2="79.262917" /><linearGradient
       inkscape:collect="always"
       xlink:href="#linearGradient4175"
       id="linearGradient2679"
       gradientUnits="userSpaceOnUse"
       x1="85.219681"
       y1="93.219681"
       x2="61.336319"
       y2="69.336319" /><linearGradient
       inkscape:collect="always"
       xlink:href="#XMLID_12_"
       id="linearGradient2681"
       gradientUnits="userSpaceOnUse"
       x1="96"
       y1="104"
       x2="88.0002"
       y2="96.0002" /><linearGradient
       inkscape:collect="always"
       xlink:href="#linearGradient3716"
       id="linearGradient2686"
       gradientUnits="userSpaceOnUse"
       gradientTransform="matrix(0,0.8940438,-0.8940438,0,125.34618,-10.056812)"
       x1="63.998402"
       y1="2.0128229"
       x2="63.998402"
       y2="74.721313" /><radialGradient
       inkscape:collect="always"
       xlink:href="#XMLID_8_"
       id="radialGradient2696"
       gradientUnits="userSpaceOnUse"
       gradientTransform="matrix(0.9787234,0,0,0.9818182,-112.6383,-4.2511299)"
       cx="102"
       cy="112.3047"
       r="139.55859" /><radialGradient
       inkscape:collect="always"
       xlink:href="#XMLID_7_"
       id="radialGradient2699"
       gradientUnits="userSpaceOnUse"
       gradientTransform="matrix(0.9686802,0,0,0.9686802,-111.94829,-7.2674998)"
       cx="102"
       cy="112.3047"
       r="139.5585" /><linearGradient
       inkscape:collect="always"
       xlink:href="#linearGradient3757"
       id="linearGradient2704"
       gradientUnits="userSpaceOnUse"
       gradientTransform="matrix(0,-1.0293895,1.0293895,0,11.93834,80.22496)"
       x1="64.129814"
       y1="56.231236"
       x2="5.1264462"
       y2="56.231236" /><linearGradient
       inkscape:collect="always"
       xlink:href="#linearGradient3757"
       id="linearGradient2706"
       gradientUnits="userSpaceOnUse"
       gradientTransform="matrix(0,-1.0293895,1.0293895,0,11.93834,80.22496)"
       x1="64.129814"
       y1="56.231236"
       x2="5.1264462"
       y2="56.231236" /></defs><sodipodi:namedview
     inkscape:window-height="687"
     inkscape:window-width="1022"
     inkscape:pageshadow="2"
     inkscape:pageopacity="0.0"
     guidetolerance="10.0"
     gridtolerance="10.0"
     objecttolerance="10.0"
     borderopacity="1.0"
     bordercolor="#666666"
     pagecolor="#ffffff"
     id="base"
     inkscape:zoom="3.6093749"
     inkscape:cx="53.868718"
     inkscape:cy="96.232796"
     inkscape:window-x="529"
     inkscape:window-y="240"
     inkscape:current-layer="Layer_1"
     showgrid="true"
     showguides="true"
     inkscape:guide-bbox="true"
     inkscape:window-maximized="0"><inkscape:grid
       id="GridFromPre046Settings"
       type="xygrid"
       originx="0px"
       originy="0px"
       spacingx="5.8181px"
       spacingy="5.8181px"
       color="#0000ff"
       empcolor="#0000ff"
       opacity="0.2"
       empopacity="0.4"
       empspacing="1"
       enabled="true"
       visible="true" /></sodipodi:namedview><metadata
     id="metadata3"><ns:sfw><ns:slices><ns:slice
           y="0"
           x="0"
           height="128"
           width="128"
           sliceID="1316743234" /></ns:slices><ns:sliceSourceBounds
         y="0"
         x="0"
         height="128"
         width="128"
         bottomLeftOrigin="true" /><ns:optimizationSettings><ns:targetSettings
           targetSettingsID="0"
           fileFormat="PNG24Format"><ns:PNG24Format
             transparency="true"
             filtered="false"
             matteColor="#FFFFFF"
             noMatteColor="false"
             interlaced="false" /></ns:targetSettings><ns:targetSettings
           targetSettingsID="1696735251"
           fileFormat="PNG24Format"><ns:PNG24Format
             transparency="true"
             filtered="false"
             matteColor="#FFFFFF"
             noMatteColor="false"
             interlaced="false" /></ns:targetSettings></ns:optimizationSettings></ns:sfw><rdf:RDF><cc:Work
         rdf:about=""><dc:format>image/svg+xml</dc:format><dc:type
           rdf:resource="http://purl.org/dc/dcmitype/StillImage" /><dc:title></dc:title></cc:Work></rdf:RDF></metadata><radialGradient
     id="XMLID_7_"
     cx="102"
     cy="112.3047"
     r="139.5585"
     gradientUnits="userSpaceOnUse"><stop
       offset="0"
       style="stop-color:#3e3e3e;stop-opacity:1;"
       id="stop16" /><stop
       offset="0.0151"
       style="stop-color:#505050;stop-opacity:1;"
       id="stop18" /><stop
       offset="0.0558"
       style="stop-color:#7e7e7e;stop-opacity:1;"
       id="stop20" /><stop
       offset="0.1357"
       style="stop-color:#c6c6c6;stop-opacity:1;"
       id="stop24" /><stop
       offset="0.20990001"
       style="stop-color:#f1f1f1;stop-opacity:1;"
       id="stop28" /><stop
       offset="0.24349999"
       style="stop-color:#fcfcfc;stop-opacity:1;"
       id="stop30" /><stop
       offset="0.2722"
       style="stop-color:#FFFFFF"
       id="stop32" /></radialGradient><radialGradient
     id="XMLID_8_"
     cx="102"
     cy="112.3047"
     r="139.55859"
     gradientUnits="userSpaceOnUse"><stop
       offset="0"
       style="stop-color:#535557"
       id="stop37" /><stop
       offset="0.11366145"
       style="stop-color:#898A8C"
       id="stop41" /><stop
       offset="0.20296688"
       style="stop-color:#ECECEC"
       id="stop47" /><stop
       offset="0.2363"
       style="stop-color:#FAFAFA"
       id="stop49" /><stop
       offset="0.2722"
       style="stop-color:#FFFFFF"
       id="stop51" /><stop
       offset="0.5313"
       style="stop-color:#FAFAFA"
       id="stop53" /><stop
       offset="0.8449"
       style="stop-color:#EBECEC"
       id="stop55" /><stop
       offset="1"
       style="stop-color:#E1E2E3"
       id="stop57" /></radialGradient><linearGradient
     id="XMLID_9_"
     gradientUnits="userSpaceOnUse"
     x1="94.3438"
     y1="102.3447"
     x2="86.5356"
     y2="94.5366"><stop
       offset="0"
       style="stop-color:#FFFFFF"
       id="stop62" /><stop
       offset="1"
       style="stop-color:#555753"
       id="stop64" /></linearGradient><linearGradient
     id="XMLID_10_"
     gradientUnits="userSpaceOnUse"
     x1="95"
     y1="103"
     x2="86.5865"
     y2="94.5865"><stop
       offset="0"
       style="stop-color:#FFFFFF"
       id="stop69" /><stop
       offset="1"
       style="stop-color:#555753"
       id="stop71" /></linearGradient><linearGradient
     id="XMLID_11_"
     gradientUnits="userSpaceOnUse"
     x1="95"
     y1="103"
     x2="87.293"
     y2="95.293"><stop
       offset="0"
       style="stop-color:#FFFFFF"
       id="stop76" /><stop
       offset="1"
       style="stop-color:#393B38"
       id="stop78" /></linearGradient><linearGradient
     id="XMLID_12_"
     gradientUnits="userSpaceOnUse"
     x1="96"
     y1="104"
     x2="88.0002"
     y2="96.0002"><stop
       offset="0"
       style="stop-color:#888A85"
       id="stop83" /><stop
       offset="0.0072"
       style="stop-color:#8C8E89"
       id="stop85" /><stop
       offset="0.0673"
       style="stop-color:#ABACA9"
       id="stop87" /><stop
       offset="0.1347"
       style="stop-color:#C5C6C4"
       id="stop89" /><stop
       offset="0.2115"
       style="stop-color:#DBDBDA"
       id="stop91" /><stop
       offset="0.3012"
       style="stop-color:#EBEBEB"
       id="stop93" /><stop
       offset="0.4122"
       style="stop-color:#F7F7F6"
       id="stop95" /><stop
       offset="0.5679"
       style="stop-color:#FDFDFD"
       id="stop97" /><stop
       offset="1"
       style="stop-color:#FFFFFF"
       id="stop99" /></linearGradient><path
     sodipodi:nodetypes="cccccccc"
     transform="matrix(1.0090419,0,0,1.003276,-13.509126,0.8156975)"
     style="opacity:0.55342467;fill:#000000;fill-opacity:1;filter:url(#filter3241)"
     d="m 23,8.9687825 0.04082,114.0246875 61.131184,0 c 0.53,0 1.039,-0.211 1.414,-0.586 l 32.828,-32.828001 c 0.375,-0.375 0.586,-0.884 0.586,-1.414 l 0,-79.1966865 -96,0 z"
     id="path4253"
     inkscape:connector-curvature="0" /><path
     sodipodi:nodetypes="cccccccc"
     transform="matrix(1.0090419,0,0,1.003276,-13.509126,0.8156975)"
     style="opacity:0.30684934;fill:#000000;fill-opacity:1;filter:url(#filter3241)"
     d="m 23,9 0.04082,113.99347 61.131184,0 c 0.53,0 1.039,-0.211 1.414,-0.586 l 32.828,-32.828001 c 0.375,-0.375 0.586,-0.884 0.586,-1.414 L 119,9 23,9 z"
     id="path4081"
     inkscape:connector-curvature="0" /><path
     sodipodi:nodetypes="cccccccc"
     transform="matrix(1.0090419,0,0,1.003276,-13.509126,0.8156975)"
     style="opacity:0.89589042;fill:#000000;fill-opacity:1;filter:url(#filter3772)"
     d="m 24.919999,10.931136 0,109.932054 58.676001,-1e-4 c 0.53,0 1.039,-0.211 1.414,-0.586 l 31.484,-31.765934 c 0.375,-0.375 0.586,-0.884 0.586,-1.414 l 0,-76.16602 -92.160001,0 z"
     id="path3726"
     inkscape:connector-curvature="0" /><path
     id="path6594"
     d="m 23,9.9655172 0.04082,113.0279528 61.131184,0 c 0.53,0 1.039,-0.211 1.414,-0.586 l 32.828,-32.828001 c 0.375,-0.375 0.586,-0.884 0.586,-1.414 l 0,-78.1999518 -96,0 z"
     style="opacity:0.30684934;fill:#000000;fill-opacity:1;filter:url(#filter3241)"
     transform="matrix(1.0090419,0,0,1.003276,-13.509126,0.8156975)"
     sodipodi:nodetypes="cccccccc"
     inkscape:connector-curvature="0" /><path
     style="fill:url(#radialGradient2275)"
     d="m 11.6362,11.782643 0,110.292187 59.256106,0 c 0.513401,0 1.006458,-0.20439 1.369714,-0.56765 l 31.79983,-31.799834 c 0.36326,-0.363255 0.56764,-0.856313 0.56764,-1.369714 l 0,-76.554989 -92.99329,0 z"
     id="path34"
     sodipodi:nodetypes="cccccccc"
     inkscape:connector-curvature="0" /><path
     style="fill:url(#radialGradient2272);fill-opacity:1"
     d="m 18.199707,17.398079 c -0.522387,0 -0.94807,0.42703 -0.94807,0.951069 L 17.57356,115.0864 c 0,0.525 0.425684,0.95108 0.94807,0.95108 l 52.099199,0 c 0.249342,0 0.493944,-0.10082 0.670284,-0.27867 L 98.814354,88.537148 c 0.17729,-0.17785 0.27778,-0.422273 0.27778,-0.672405 l -0.2,-69.493672 c 0,-0.524039 -0.42473,-0.951068 -0.94806,-0.951068 l -79.744367,-0.02192 z"
     id="path59"
     sodipodi:nodetypes="ccccccccccc"
     inkscape:connector-curvature="0" /><g
     id="g1973"
     transform="matrix(1.1080161,0,0,1.1080161,-18.611933,-10.130735)"><path
       style="opacity:0.75068491;fill:url(#linearGradient2291);filter:url(#filter4107)"
       id="path66"
       d="M 111.414,86.586 C 111.664,86.336 85.035,85 80,85 c -1.654,0 -3,1.346 -3,3 0,5.035 1.336,31.664 1.586,31.414 l 32.828,-32.828 z"
       sodipodi:nodetypes="csscc"
       inkscape:connector-curvature="0" /><path
       style="opacity:0.2;fill:#000000;fill-opacity:1;filter:url(#filter4209)"
       id="path73"
       d="M 111.414,86.586 C 111.789,86.211 89.444,86 80,86 c -1.103,0 -2,0.897 -2,2 0,9.444 0.211,31.789 0.586,31.414 l 32.828,-32.828 z"
       sodipodi:nodetypes="csscc"
       inkscape:connector-curvature="0" /><path
       style="opacity:0.1;fill:url(#linearGradient2295);filter:url(#filter4171)"
       id="path80"
       d="M 111.414,86.586 C 111.653,86.347 89.807,87 80,87 c -0.553,0 -1,0.447 -1,1 0,9.807 -0.653,31.653 -0.414,31.414 l 32.828,-32.828 z"
       sodipodi:nodetypes="csscc"
       inkscape:connector-curvature="0" /><path
       style="fill:url(#linearGradient2297)"
       id="path101"
       d="m 79.721619,119.31106 31.505501,-31.505504 -31.505501,0 0,31.505504 z"
       sodipodi:nodetypes="cccc"
       inkscape:connector-curvature="0" /></g><path
     sodipodi:type="inkscape:offset"
     inkscape:radius="-0.98200667"
     inkscape:original="M 62.6875 3.21875 C 62.209361 3.3251895 61.823747 3.7277733 61.46875 4.0625 L 61.375 3.96875 L 26.40625 36.40625 C 25.944476 36.842055 25.46876 37.372515 25.46875 38.53125 C 25.46875 39.690023 25.94457 40.220514 26.40625 40.65625 L 34.5625 48.84375 C 34.572825 48.85426 34.583242 48.864675 34.59375 48.875 C 35.688109 49.933529 37.244424 50.003065 38.4375 49.09375 C 38.448008 49.083427 38.458425 49.073008 38.46875 49.0625 L 54.3125 36.40625 L 55.3125 74.59375 C 55.319633 76.084319 55.500393 77.522997 57.21875 77.53125 L 68.5625 77.53125 C 70.279853 77.523029 71.491782 76.311095 71.5 74.59375 L 72.5 36.40625 L 88.34375 49.0625 C 88.354075 49.07301 88.364492 49.083425 88.375 49.09375 C 89.446736 49.910588 91.218935 49.811821 92.1875 48.875 C 92.198008 48.864677 92.208425 48.854258 92.21875 48.84375 L 100.46875 40.625 C 101.15606 39.976349 101.31251 39.23812 101.3125 38.53125 C 101.3125 37.824378 101.09357 37.054917 100.40625 36.40625 L 65.40625 3.96875 C 64.973706 3.5572792 64.408622 3.3135174 63.8125 3.28125 C 63.537956 3.2172038 63.21617 3.1010615 62.6875 3.21875 z "
     style="fill:url(#linearGradient2706);fill-opacity:1;stroke:none;filter:url(#filter3797)"
     id="path3769"
     d="m 62.90625,4.1875 c -0.0748,0.016652 -0.36731,0.2329119 -0.75,0.59375 A 0.98210487,0.98210487 0 0 1 61.71875,5 l -0.03125,0 -34.59375,32.125 -0.03125,0 c -0.404497,0.379746 -0.624992,0.530192 -0.625,1.40625 0,0.889949 0.238972,1.012421 0.65625,1.40625 a 0.98210487,0.98210487 0 0 1 0,0.03125 l 8.15625,8.1875 c 0.0031,0.0032 0.02809,-0.0032 0.03125,0 0.775393,0.750006 1.716072,0.801364 2.5625,0.15625 a 0.98210487,0.98210487 0 0 1 0,-0.03125 L 53.6875,35.625 a 0.98210487,0.98210487 0 0 1 1.59375,0.75 l 1,38.1875 a 0.98210487,0.98210487 0 0 1 0,0.03125 c 0.0034,0.707102 0.08474,1.312746 0.21875,1.59375 0.134011,0.281004 0.133455,0.372189 0.71875,0.375 l 11.34375,0 c 1.25758,-0.006 1.962732,-0.711179 1.96875,-1.96875 a 0.98210487,0.98210487 0 0 1 0,-0.03125 l 1,-38.1875 a 0.98210487,0.98210487 0 0 1 1.59375,-0.75 l 15.84375,12.65625 a 0.98210487,0.98210487 0 0 1 0,0.03125 c 0.0072,0.0055 0.02385,-0.0053 0.03125,0 0.635246,0.459257 1.94339,0.382118 2.5,-0.15625 0.0032,-0.0032 0.02808,0.0032 0.03125,0 l 8.25,-8.21875 a 0.98210487,0.98210487 0 0 1 0,-0.03125 c 0.47093,-0.444438 0.56251,-0.813037 0.5625,-1.375 0,-0.504109 -0.1439,-0.952202 -0.625,-1.40625 L 64.75,4.6875 a 0.98210487,0.98210487 0 0 1 -0.03125,0 C 64.455333,4.4369162 64.113035,4.2696507 63.75,4.25 a 0.98210487,0.98210487 0 0 1 -0.15625,0 c -0.365007,-0.08515 -0.375087,-0.1320471 -0.6875,-0.0625 z"
     transform="matrix(0,0.8940438,-0.8940438,0,126.6914,-10.056812)" /><path
     transform="matrix(0,0.8940438,-0.8940438,0,126.6914,-10.056812)"
     d="m 62.875,3.15625 c -0.06032,0.008 -0.121049,0.047707 -0.1875,0.0625 -0.48362,0.1076597 -0.864129,0.5093782 -1.21875,0.84375 L 61.375,3.96875 26.40625,36.40625 c -0.462378,0.436375 -0.93749,0.962612 -0.9375,2.125 0,1.162426 0.475217,1.688694 0.9375,2.125 l 8.15625,8.1875 c 0.01038,0.01057 0.02069,0.02087 0.03125,0.03125 1.098694,1.062722 2.645963,1.131656 3.84375,0.21875 0.01056,-0.01038 0.02087,-0.02069 0.03125,-0.03125 l 15.84375,-12.65625 1,38.1875 c 0.0036,0.745803 0.0499,1.480613 0.3125,2.03125 0.2626,0.550637 0.730849,0.902106 1.59375,0.90625 l 11.34375,0 c 1.723601,-0.0083 2.929252,-1.213907 2.9375,-2.9375 l 1,-38.1875 15.84375,12.65625 c 0.01038,0.01057 0.02069,0.02087 0.03125,0.03125 1.07779,0.821452 2.838425,0.723401 3.8125,-0.21875 0.01056,-0.01038 0.02087,-0.02069 0.03125,-0.03125 l 8.25,-8.21875 c 0.69025,-0.651426 0.84376,-1.384911 0.84375,-2.09375 0,-0.709628 -0.21613,-1.473688 -0.90625,-2.125 l -35,-32.4375 C 64.971408,3.5550927 64.41179,3.3136889 63.8125,3.28125 63.57335,3.2254605 63.297273,3.1002576 62.875,3.15625 z"
     id="path3801"
     style="opacity:0.38118813;fill:url(#linearGradient2704);fill-opacity:1;stroke:none;filter:url(#filter3827)"
     inkscape:original="M 62.6875 3.21875 C 62.209361 3.3251895 61.823747 3.7277733 61.46875 4.0625 L 61.375 3.96875 L 26.40625 36.40625 C 25.944476 36.842055 25.46876 37.372515 25.46875 38.53125 C 25.46875 39.690023 25.94457 40.220514 26.40625 40.65625 L 34.5625 48.84375 C 34.572825 48.85426 34.583242 48.864675 34.59375 48.875 C 35.688109 49.933529 37.244424 50.003065 38.4375 49.09375 C 38.448008 49.083427 38.458425 49.073008 38.46875 49.0625 L 54.3125 36.40625 L 55.3125 74.59375 C 55.319633 76.084319 55.500393 77.522997 57.21875 77.53125 L 68.5625 77.53125 C 70.279853 77.523029 71.491782 76.311095 71.5 74.59375 L 72.5 36.40625 L 88.34375 49.0625 C 88.354075 49.07301 88.364492 49.083425 88.375 49.09375 C 89.446736 49.910588 91.218935 49.811821 92.1875 48.875 C 92.198008 48.864677 92.208425 48.854258 92.21875 48.84375 L 100.46875 40.625 C 101.15606 39.976349 101.31251 39.23812 101.3125 38.53125 C 101.3125 37.824378 101.09357 37.054917 100.40625 36.40625 L 65.40625 3.96875 C 64.973706 3.5572792 64.408622 3.3135174 63.8125 3.28125 C 63.537956 3.2172038 63.21617 3.1010615 62.6875 3.21875 z "
     inkscape:radius="0.013345501"
     sodipodi:type="inkscape:offset" /><path
     style="fill:url(#linearGradient2686);fill-opacity:1;stroke:none"
     d="m 121.96318,46.883133 -29.450212,31.29086 c -0.07097,0.07521 -0.169812,0.117822 -0.273219,0.117822 -0.103409,0 -0.202245,-0.04261 -0.273221,-0.117822 l -7.362553,-7.362557 c -0.129099,-0.13347 -0.141321,-0.341236 -0.02876,-0.488921 l 14.236189,-17.802425 -39.71753,0 c -0.206076,-9.85e-4 -0.372892,-0.167802 -0.373878,-0.37388 l 0,-11.043832 c 9.86e-4,-0.206077 0.167802,-0.372892 0.373878,-0.373878 l 39.71753,0 -14.236189,-17.802427 c -0.112561,-0.147684 -0.100339,-0.355449 0.02876,-0.488919 L 91.966528,15.0746 c 0.07098,-0.0752 0.169812,-0.11783 0.273221,-0.11783 0.103407,0 0.202245,0.04263 0.273219,0.11783 l 29.450212,31.290855 c 0.21147,0.149805 0,0.360754 0,0.517678 z"
     id="path2842"
     sodipodi:nodetypes="ccsccccccccccccsccc"
     inkscape:connector-curvature="0" /><path
     style="fill:#ffffff;fill-opacity:1;stroke:none"
     d="m 122.05188,46.488136 c -0.01,-0.0433 -0.0506,-0.100484 -0.10345,-0.137935 L 92.499553,15.073694 c -0.07098,-0.07521 -0.172461,-0.10345 -0.275869,-0.103452 -0.103408,0 -0.170407,0.02825 -0.241385,0.103452 l -1.278171,2.000041 27.552292,29.276466 c 0.21147,0.149805 0,0.360328 0,0.517254 l -27.552292,29.310951 1.278171,2.000042 c 0.07098,0.0752 0.137977,0.10344 0.241385,0.103447 0.103408,0 0.204895,-0.02825 0.275869,-0.103447 L 121.94843,46.867455 c 0,-0.117695 0.13319,-0.249435 0.10345,-0.379319 z"
     id="path2861"
     sodipodi:nodetypes="cccsccccccsccc"
     inkscape:connector-curvature="0" /></svg>