<?xml version="1.0" encoding="utf-8"?>
<!-- Uploaded to: SVG Repo, www.svgrepo.com, Generator: SVG Repo Mixer Tools -->
<svg fill="#000000" width="800px" height="800px" viewBox="-5.5 0 32 32" version="1.1" xmlns="http://www.w3.org/2000/svg">
<title>filter</title>
<path d="M8.48 25.72c-0.16 0-0.32-0.040-0.44-0.12-0.24-0.16-0.4-0.44-0.4-0.72v-8.72l-7.48-8.48c-0.2-0.24-0.28-0.6-0.12-0.88s0.44-0.48 0.76-0.48h19.8c0.32 0 0.64 0.2 0.76 0.48 0.12 0.32 0.080 0.64-0.12 0.92l-7.8 8.8v6.32c0 0.32-0.2 0.6-0.48 0.76l-4.080 2c-0.080 0.080-0.24 0.12-0.4 0.12zM2.64 7.96l6.48 7.32c0.12 0.16 0.2 0.36 0.2 0.56v7.64l2.4-1.2v-6.080c0-0.2 0.080-0.4 0.2-0.56l6.8-7.68c0.040 0-16.080 0-16.080 0z"></path>
</svg>