<svg id="_x31_px" enable-background="new 0 0 24 24" height="512" viewBox="0 0 24 24" width="512" xmlns="http://www.w3.org/2000/svg"><path d="m18.5 17c-.063 0-.126-.012-.186-.036l-5-2c-.19-.076-.314-.259-.314-.464s.124-.388.314-.464l5-2c.119-.048.252-.048.371 0l5 2c.191.076.315.259.315.464s-.124.388-.314.464l-5 2c-.06.024-.123.036-.186.036zm-3.653-2.5 3.653 1.461 3.653-1.461-3.653-1.461z"/><path d="m18.5 23c-.063 0-.126-.012-.186-.036l-5-2c-.19-.076-.314-.259-.314-.464v-6c0-.276.224-.5.5-.5s.5.224.5.5v5.662l4.5 1.8 4.5-1.8v-5.662c0-.276.224-.5.5-.5s.5.224.5.5v6c0 .205-.124.388-.314.464l-5 2c-.06.024-.123.036-.186.036z"/><path d="m18.5 23c-.276 0-.5-.224-.5-.5v-6c0-.276.224-.5.5-.5s.5.224.5.5v6c0 .276-.224.5-.5.5z"/><path d="m5.5 17c-.063 0-.126-.012-.186-.036l-5-2c-.19-.076-.314-.259-.314-.464s.124-.388.314-.464l5-2c.119-.048.252-.048.371 0l5 2c.191.076.315.259.315.464s-.124.388-.314.464l-5 2c-.06.024-.123.036-.186.036zm-3.653-2.5 3.653 1.461 3.653-1.461-3.653-1.461z"/><path d="m5.5 23c-.063 0-.126-.012-.186-.036l-5-2c-.19-.076-.314-.259-.314-.464v-6c0-.276.224-.5.5-.5s.5.224.5.5v5.662l4.5 1.8 4.5-1.8v-5.662c0-.276.224-.5.5-.5s.5.224.5.5v6c0 .205-.124.388-.314.464l-5 2c-.06.024-.123.036-.186.036z"/><path d="m5.5 23c-.276 0-.5-.224-.5-.5v-6c0-.276.224-.5.5-.5s.5.224.5.5v6c0 .276-.224.5-.5.5z"/><path d="m12 7c-.063 0-.126-.012-.186-.036l-5-2c-.19-.076-.314-.259-.314-.464s.124-.388.314-.464l5-2c.119-.048.252-.048.371 0l5 2c.191.076.315.259.315.464s-.124.388-.314.464l-5 2c-.06.024-.123.036-.186.036zm-3.653-2.5 3.653 1.461 3.653-1.461-3.653-1.461z"/><path d="m12 13c-.063 0-.126-.012-.186-.036l-5-2c-.19-.076-.314-.259-.314-.464v-6c0-.276.224-.5.5-.5s.5.224.5.5v5.662l4.5 1.8 4.5-1.8v-5.662c0-.276.224-.5.5-.5s.5.224.5.5v6c0 .205-.124.388-.314.464l-5 2c-.06.024-.123.036-.186.036z"/><path d="m12 13c-.276 0-.5-.224-.5-.5v-6c0-.276.224-.5.5-.5s.5.224.5.5v6c0 .276-.224.5-.5.5z"/></svg>