<svg id="Capa_1" enable-background="new 0 0 512 512" height="512" viewBox="0 0 512 512" width="512" xmlns="http://www.w3.org/2000/svg"><g><path d="m31.87 512c-17.601 0-31.87-14.269-31.87-31.87v-392.018h200.463l55.537 43.57h224.13v63.74c-159.697 137.674-263.13 316.578-448.26 316.578z" fill="#3d9ae2"/><g><g><g><g><path d="m112.378 32.446h94.622v166.552h-94.622z" fill="#dce6eb"/></g><g><path d="m195.532 0v198.997h92.338l20-99.498-20-99.499z" fill="#fff5f5"/><path d="m287.87 0h200.061v198.997h-200.061z" fill="#dce6eb"/></g></g></g></g><g><path d="m63.74 195.422v284.708c0 17.601-14.269 31.87-31.87 31.87h256l30-163.944-30-152.634z" fill="#96c8ef"/><path d="m287.87 195.422v316.578h192.26c17.601 0 31.87-14.269 31.87-31.87v-284.708z" fill="#69b1e9"/></g><g><path d="m287.87 420.767h-117.919v-30h117.919l20 15z" fill="#69b1e9"/></g><g><path d="m287.87 390.767h117.919v30h-117.919z" fill="#3d9ae2"/></g></g></svg>